<svg xmlns="http://www.w3.org/2000/svg" viewBox="0 0 1901 500" class="flattr-logo"><path d="M39.71 250C39.71 134 134 39.71 250 39.71c1 0 83.39 0 113.64.05L302.7 100.7l28 28L456.31 0H250A250 250 0 000 250v194.4l39.78-36.64v-2c-.04-5.09-.07-154.26-.07-155.76zM500 55.59l-39.79 36.65v2c0 5.09.07 154.26.07 155.76 0 116-94.34 210.29-210.29 210.29-1 0-83.39 0-113.64-.05l60.95-60.94-28-28L43.69 500H250a250 250 0 00250-250zm231.5 13.69h198.32v33.24H768.48V244h138.28v33.24H768.48v168.84h-37zm262.11 0h36.45v305c0 35.38 16.08 40.74 30 40.74a83.24 83.24 0 009.08-.53v32.68a92.22 92.22 0 01-13.4 1.07c-22.51 0-62.18-7-62.18-65.94zm278.17 210.09h15v-7c0-52-28.41-69.68-67-69.68-44.5 0-76.1 25.72-76.1 25.72l-17.16-27.87s35.4-30.54 95.96-30.54c64.86 0 100.77 35.91 100.77 103.48V446.1h-34.82v-29.5a213.07 213.07 0 011.07-22.51h-1.07s-22.51 58.42-90 58.42c-45 0-91.66-26.27-91.66-79.88-.06-91.15 118.4-93.26 165.01-93.26zm-67.53 142c51.45 0 82.55-53.59 82.55-100.23v-11.8h-15.54c-42.34 0-127.08 1.62-127.08 61.11.05 25.24 19.88 50.96 60.07 50.96zM1416 210.24h-35.38v-30.55h35.91V102h35.91v77.72H1520v30.55h-67.53v134c0 63.25 40.19 71.29 60.56 71.29a62.71 62.71 0 0012.33-1.07v32.68a95.87 95.87 0 01-15.54 1.07c-31.08 0-93.8-10.18-93.8-100.23zm179.56 0h-35.38v-30.55h35.91V102H1632v77.72h67.53v30.55H1632v134c0 63.25 40.19 71.29 60.56 71.29a62.71 62.71 0 0012.33-1.07v32.68a95.87 95.87 0 01-15.54 1.07c-31.08 0-93.8-10.18-93.8-100.23zm169.38-33.76h35.91v47.71c0 11.8-1.07 21.44-1.07 21.44h1.07c12.85-40.74 42.88-71.82 85.22-71.82a73 73 0 0114.52 1.6v35.91a92.3 92.3 0 00-13.4-1.07c-38.12 0-66.46 30-78.26 69.68a177.91 177.91 0 00-7.5 52.52v113.61H1765z"/></svg>